/* XPM */
static char *_99f99ad48a24bd08b9943d017562bc8QSK0GBVknq2aYemD[] = {
/* columns rows colors chars-per-pixel */
"32 32 8 1 ",
"  c None",
". c white",
"X c #F4D565",
"o c #F4EAA3",
"O c #EDB048",
"+ c #BB5E25",
"@ c #FCA21C",
"# c white",
/* pixels */
"                                ",
"                                ",
"                                ",
"                                ",
"                                ",
"                                ",
"                                ",
"                                ",
"            XXXXXXXX    ........",
"            XXXXXXXX    ........",
"          ooOOOOOOOOoo  ........",
"          ooOOOOOOOOoo  ........",
"        OOOOOO++++OOOOOO........",
"        OOOOOO++++OOOOOO........",
"        ooOO++OOOO++OOoo........",
"        ooOO++OOOO++OOoo........",
"        ++OOXXOOOOXXOO++........",
"        ++OOXXOOOOXXOO++........",
"        @@OOOOXXXXOOOO@@........",
"        @@OOOOXXXXOOOO@@........",
"          ++OOOOOOOO++  ........",
"          ++OOOOOOOO++  ........",
"            @@@@@@@@    ........",
"            @@@@@@@@    ........",
"                                ",
"                                ",
"                                ",
"                                ",
"                                ",
"                                ",
"                                ",
"                                "
};
