/* XPM */
static char *f5a92e460db647d4b07a100414274da8PMpiijOgBAl4eWFp[] = {
/* columns rows colors chars-per-pixel */
"32 32 5 1 ",
"  c gray25",
". c #3A7A1A",
"X c #80B480",
"o c #000008",
"O c white",
/* pixels */
" .XX   X....XXXXXXXX....X   XX. ",
" ..XX       .XXXXXX.       XX.. ",
"X ..  ......  ....  ......  .. X",
"XX . .  oooo........oooo  . . XX",
"XX.  XXXooooo  ..  oooooXXX  .XX",
"XX. XXX    o ...... o    XXX .XX",
"XX. XXX ... ..oooo.. ... XXX .XX",
"XX. .XXXXXXX.oooooo.XXXXXXX. .XX",
"XX. .XXX.XXXX o..o XXXX.XXX. .XX",
"XX.    ....XX. .. .XX....    .XX",
"XX XX.  ................  .XX XX",
"X XXX..     .      .     ..XXX X",
"X X...   XX   .XX.   XX   ...X X",
" ...  . .XX.ooXXXXoo.XX. .  ... ",
" .. . . XX. ooXXXXoo .XX . . .. ",
" . .. . XX.oooXXXXooo.XX . .. . ",
"  ... . .X ooo.XX.ooo X. . ...  ",
" X..  . o. ooo XX ooo .o .  ..X ",
"XX. . . o    oo..oo    o . . .XX",
"XX. X . oo . oo  oo . oo . X .XX",
"XX .X . oo.X oooooo X.oo . X. XX",
"XX XX . oo.X oooooo X.oo . XX XX",
"XX XXX . ..X. oooo .X.. . XXX XX",
"XX XXX . .XXX. oo .XXX. . XXX XX",
"XX .X. . .XXX..  ..XXX. . .X. XX",
"XX ....  ..XX......XX..  .... XX",
"XX  ..   ......  ......   ..  XX",
"XX.       ....    ....   ..  .XX",
"XX..    .  ..  ..  ..  . .. ..XX",
"XX...  ...    ....    ...  ...XX",
"XXXXXXXXXXXXXXXXXXXXXXXXXXXXXXXX",
"XXXXXXXXXXXXXXXXXXXXXXXXXXXXXXXX"
};
