/* XPM */
static char *cf252473cce84721c2aec2c3aa34f51fWKuV5RR8YcqvkFuJ[] = {
/* columns rows colors chars-per-pixel */
"32 32 6 1 ",
"  c None",
". c black",
"X c #3A0911",
"o c #811426",
"O c #A11B31",
"+ c white",
/* pixels */
"                                ",
"                                ",
"           XXXXXXX              ",
"          XoOOOOOOX             ",
"       XXXoOOOXXXXOX            ",
"      XoooOOOX....XOX           ",
"      XoooOOX......XOX          ",
"       XooOOX......XOX          ",
"        XooOX......XOX          ",
"         XoOX.+...+XOX          ",
"         XoOX.+...+XoX          ",
"         XooOX.....XoX          ",
"          XoooX...XoX           ",
"           XXooXXXoX            ",
"          XoooOOOOOoX           ",
"         XoOOOOOOOOOoXX         ",
"        XXoOOOOOOOOOoooX        ",
"       XooOOOOOOOOOOOooX        ",
"      XooooOOOOOOOOOOOooX       ",
"      XoooOOOOOOoOOOOOooX       ",
"      XoooOOOOOOoOOOOOXoX       ",
"       XoooXOoOoXoOOOooX        ",
"        XXooXoooXooOoXX         ",
"          XXXXXX.XXXX           ",
"            .......             ",
"            ..   ..             ",
"             .    .             ",
"            ..    ..            ",
"           ..      ..           ",
"                                ",
"                                ",
"                                "
};
