/* XPM */
static char *f2e90749968c4507d535f8840ed62ff7YtmCZHzHclUaCutj[] = {
/* columns rows colors chars-per-pixel */
"32 32 6 1 ",
"  c #465374",
". c #5A8090",
"X c #78CCB9",
"o c #342E4C",
"O c #23192D",
"+ c white",
/* pixels */
"                                ",
"   ...  ...X                    ",
"   o..  ...XXXXX  ..XXXXXXXX..  ",
"   oo.   .....XX  .XXXXXXXXX..  ",
"   ooo       ...  .XXX........  ",
"O                 .XX........   ",
"       XXXXXX      XX.........  ",
"  XXXXXXXXXX.  ..  ...........  ",
"  XXXXXX.....  ..   ..........  ",
"  XXXX........  .      ....     ",
"  XXX.........                  ",
"   ........ooo     .......      ",
"   ........ooo     .......o ... ",
"   .....oooooo       ...ooo ... ",
"        ooo           .oooo ... ",
"                  XX        o.. ",
"  XXXXX    ...  ...X        oo. ",
"  XXXXXX   ....  ...   ...  ooo ",
"  XXXXXX               ...  oo  ",
"  ...XXX               ...      ",
"  ....X..    XXXXXXX.           ",
"  .......    XXXXXXX.   ..XXXXX ",
" ........    XXXXXX..  ....XXXX ",
" ......oo    XXX.....  .....X   ",
" ....ooo    ..X......  .....    ",
"  ..oooo    .........  .....    ",
"            ooo......         . ",
"         ..  oooo...     ...... ",
"  ....   ..            oo...... ",
"  ....  ...            ooo..... ",
" ....   .oo   ......   .oooo... ",
"              ......            "
};
