/* XPM */
static char *collect11752885319[] = {
/* columns rows colors chars-per-pixel */
"32 32 6 1 ",
"  c #BB5E25",
". c #FCA21C",
"X c #EDB048",
"o c #F4D565",
"O c #F4EAA3",
"+ c None",
/* pixels */
"++++++++++++++++++++++++++++++++",
"++++++++++++++++++++++++++++++++",
"++++++++++++++++++++++++++++++++",
"++++++++++++++++++++++++++++++++",
"++++++++++++++++++++++++++++++++",
"++++++++++++++++++++++++++++++++",
"++++++++++++++++++++++++++++++++",
"++++++++++++++++++++++++++++++++",
"++++++++++++oooooooo++++++++++++",
"++++++++++++oooooooo++++++++++++",
"++++++++++OOXXXXXXXXOO++++++++++",
"++++++++++OOXXXXXXXXOO++++++++++",
"++++++++XXXXXX    XXXXXX++++++++",
"++++++++XXXXXX    XXXXXX++++++++",
"++++++++OOXX  XXXX  XXOO++++++++",
"++++++++OOXX  XXXX  XXOO++++++++",
"++++++++  XXooXXXXooXX  ++++++++",
"++++++++  XXooXXXXooXX  ++++++++",
"++++++++..XXXXooooXXXX..++++++++",
"++++++++..XXXXooooXXXX..++++++++",
"++++++++++  XXXXXXXX  ++++++++++",
"++++++++++  XXXXXXXX  ++++++++++",
"++++++++++++........++++++++++++",
"++++++++++++........++++++++++++",
"++++++++++++++++++++++++++++++++",
"++++++++++++++++++++++++++++++++",
"++++++++++++++++++++++++++++++++",
"++++++++++++++++++++++++++++++++",
"++++++++++++++++++++++++++++++++",
"++++++++++++++++++++++++++++++++",
"++++++++++++++++++++++++++++++++",
"++++++++++++++++++++++++++++++++"
};
