/* XPM */
static char *enermy11752885319[] = {
/* columns rows colors chars-per-pixel */
"32 32 11 1 ",
"  c #474214",
". c #903A25",
"X c #BB5E25",
"o c #89954C",
"O c #A1B974",
"+ c #EDB048",
"@ c #F4D565",
"# c #B6E3B3",
"$ c #FEFEDF",
"% c #FFFFF7",
"& c None",
/* pixels */
"&&&&&&&&&&&&&&&&&&&&&&&&&&&&&&&&",
"&&&&&&&&&&&&&&&&&&&&&&&&&&&&&&&&",
"&&&&&&&&&&&&&&&&&&&&&&&&&&&&&&&&",
"&&&&&&&&&&&&&&&&&&&&&&&&&&&&&&&&",
"&&&&&&&&&&&&&&&&&&&&&&&&&&&&&&&&",
"&&&&&&###########OOOOO&&&&&&&&&&",
"&&&&&&###########OOOOO&&XX&&&&&&",
"&&&&##%%%%%%%%%%%oooooOOXX@&&&&&",
"&&&&##%%%%%%%%%%%oooooOOXX@&&&&&",
"&&##ooooooooooooooooooooXX@@&&&&",
"&&##ooooooooooooooooooooXX@@&&&&",
"##%%ooooooooooooooooooooXX@@@&&&",
"##%%ooooooooooooooooooooXX@@@&&&",
"##%%ooooooooooooooooooooXX@@@@&&",
"##%%oooooooo$$ooooo$$oooXX@@@@&&",
"##oooooooooo$$ooooo$$oooXX@@@@@&",
"OOOOoooooooo$$ooooo$$oooXX@@@@@&",
"OOOOoooooooo$$ooooo$$oooXX@@@++&",
"&&  OOoooooooo     oooOOXX@@@++&",
"&&  OOoooooooo     oOO  XX@@++&&",
"&&&&  OOooooooooooOO  &&XX@@++&&",
"&&&&&&  OOooooooooOO  &&..+++&&&",
"&&&&&&&&  OOooooOO  &&&&..+++&&&",
"&&&&&&&&  OOooooOO  &&&&..++&&&&",
"&&&&OOOOOOooooooooOOOOO&..++&&&&",
"&&&&  OOOOOOOOOOOOOOO  &..+&&&&&",
"&&&&  OOOOOOOOOOOOOOO  &..+&&&&&",
"&&&&&&               &&&..&&&&&&",
"&&&&&&               &&&..&&&&&&",
"&&&&&&&&&&&&&&&&&&&&&&&&&&&&&&&&",
"&&&&&&&&&&&&&&&&&&&&&&&&&&&&&&&&",
"&&&&&&&&&&&&&&&&&&&&&&&&&&&&&&&&"
};
