/* XPM */
static char *enermy21752885319[] = {
/* columns rows colors chars-per-pixel */
"32 32 11 1 ",
"  c #474214",
". c #903A25",
"X c #BB5E25",
"o c #89954C",
"O c #A1B974",
"+ c #EDB048",
"@ c #F4D565",
"# c #B6E3B3",
"$ c #FEFEDF",
"% c #FFFFF7",
"& c None",
/* pixels */
"&&&&&&&&&&&&&&&&&&&&&&&&&&&&&&&&",
"&&&&&&&&&&&&&&&&&&&&&&&&&&&&&&&&",
"&&&&&&&&&&&&&&&&&&&&&&&&&&&&&&&&",
"&&&&&&&&#####OOOOOOO&&&&&&&&&&&&",
"&&&&&&&&#####OOOOOOO&&&&&&&&&&&&",
"&&&&&&##%%%%%oooooooOO&XX&&&&&&&",
"&&&&&&##%%%%%oooooooOO&XX@&&&&&&",
"&&&&OOooooooooooooooooOXX@&&&&&&",
"&&&&OOooooooooooooooooOXX@@&&&&&",
"&&##oooooooooooooooooooXX@@&&&&&",
"&&##oooooooo$$ooooo$$ooXX@@@&&&&",
"&&##%%oooooo$$ooooo$$ooXX@@@&&&&",
"&&##%%oooooo$$ooooo$$ooXX@@@@&&&",
"&&OOoooooooo$$ooooo$$ooXX@@@@&&&",
"&&OOoooooooooo     ooooXX@@@@@&&",
"&&OOoooooooooo     ooooXX@@@@@&&",
"&&  OOooooooooooooooooOXX@@@++&&",
"&&  OOooooooooooooooooOXX@@@++&&",
"&&&&  OOooooooooooooOO XX@@++&&&",
"&&&&  OOooooooooooooOO XX@@++&&&",
"&&&&&&  OOooooooooOO  &..+++&&&&",
"&&&&&&  OOooooooooOO  &..+++&&&&",
"&&&&&&&&  OOooooOO  &&&..++&&&&&",
"&&&&&&&&  OOooooOO  &&&..++&&&&&",
"&&&&&&OOOOooooooooOOOO&..+&&&&&&",
"&&&&&&  OOOOOOOOOOOO  &..+&&&&&&",
"&&&&&&  OOOOOOOOOOOO  &..&&&&&&&",
"&&&&&&&&            &&&..&&&&&&&",
"&&&&&&&&            &&&&&&&&&&&&",
"&&&&&&&&&&&&&&&&&&&&&&&&&&&&&&&&",
"&&&&&&&&&&&&&&&&&&&&&&&&&&&&&&&&",
"&&&&&&&&&&&&&&&&&&&&&&&&&&&&&&&&"
};
